PathFileType	4	(X/Y/Z)	C:\Users\Willi\SynologyDrive\Deimel_MSc_Deadlift\Athlete_03\Athlete_3_22_07_06\dl_85\marker_experimental.trc
DataRate	CameraRate	NumFrames	NumMarkers	Units	OrigDataRate	OrigDataStartFrame	OrigNumFrames
200.000000	200.000000	4	59	mm	200.000000	1197	1597
Frame#	Time	BR			GLAB			RFHD			LFHD			C7			T6			SPINMOL			SPINM2			SPINM3			BELTOL			BELT2			BELT3			SACROL			SACR2			SACR3			LTHOL			LTH2			LTH3			LSHAOL			LSHA2			LSHA3			LHEE			LTOE			LM5			RTHOL			RTH2			RTH3			RSHAOL			RSHA2			RSHA3			RHEE			RTOE			RM5			STRN			XIPH			LACR			LUAOL			LUA3			LLAOL			LLA2			LLA3			LWRU			RACR			RUAOL			RUA2			RUA3			RLAOL			RLA2			RLA3			RWRU			LUA2			BL			T12			USERMO0			USERMO1			USERMO2			USERMO3			USERMO4			USERMO5			
		X1	Y1	Z1	X2	Y2	Z2	X3	Y3	Z3	X4	Y4	Z4	X5	Y5	Z5	X6	Y6	Z6	X7	Y7	Z7	X8	Y8	Z8	X9	Y9	Z9	X10	Y10	Z10	X11	Y11	Z11	X12	Y12	Z12	X13	Y13	Z13	X14	Y14	Z14	X15	Y15	Z15	X16	Y16	Z16	X17	Y17	Z17	X18	Y18	Z18	X19	Y19	Z19	X20	Y20	Z20	X21	Y21	Z21	X22	Y22	Z22	X23	Y23	Z23	X24	Y24	Z24	X25	Y25	Z25	X26	Y26	Z26	X27	Y27	Z27	X28	Y28	Z28	X29	Y29	Z29	X30	Y30	Z30	X31	Y31	Z31	X32	Y32	Z32	X33	Y33	Z33	X34	Y34	Z34	X35	Y35	Z35	X36	Y36	Z36	X37	Y37	Z37	X38	Y38	Z38	X39	Y39	Z39	X40	Y40	Z40	X41	Y41	Z41	X42	Y42	Z42	X43	Y43	Z43	X44	Y44	Z44	X45	Y45	Z45	X46	Y46	Z46	X47	Y47	Z47	X48	Y48	Z48	X49	Y49	Z49	X50	Y50	Z50	X51	Y51	Z51	X52	Y52	Z52	X53	Y53	Z53	X54	Y54	Z54	X55	Y55	Z55	X56	Y56	Z56	X57	Y57	Z57	X58	Y58	Z58	X59	Y59	Z59	

1198	5.985	262.6373291015625	248.0539245605469	-103.8230972290039	590.0166015625	907.1920166015626	-1206.082641601562	582.581787109375	970.0034790039064	-1126.356811523438	581.9739990234375	968.4163208007814	-1285.905029296875	383.9286804199219	1050.12353515625	-1208.246704101562	188.9808044433594	1024.895141601562	-1214.879516601562	161.0919799804688	1022.292297363281	-1216.114135742188	104.9847640991211	1006.148010253906	-1160.806762695312	102.6321640014648	1002.239562988281	-1210.342163085938	13.65473079681396	994.0748291015626	-1215.993774414062	-38.44731140136719	964.2410278320314	-1163.041625976562	-42.52344131469727	967.2960815429689	-1212.999755859375	-102.9784088134766	909.5088500976564	-1232.47900390625	-91.61528015136719	912.8085327148439	-1182.612060546875	-147.5263061523438	879.6402587890626	-1193.339599609375	48.68240737915039	675.7903442382814	-1437.05712890625	51.40138244628906	596.0538330078126	-1432.592895507812	89.44941711425781	629.2942504882814	-1434.981323242188	162.1129455566406	338.0529785156251	-1451.152221679688	110.798942565918	278.0747985839845	-1449.4169921875	160.4117279052734	276.0273742675782	-1447.360107421875	39.95944976806641	68.22367095947274	-1372.309326171875	249.9691772460938	72.80355834960946	-1376.083129882812	207.3976287841797	54.89554214477548	-1483.93994140625	65.57544708251953	644.2710571289064	-993.989990234375	143.8129272460938	627.8511962890626	-994.2476806640625	105.0444717407227	596.1780395507814	-993.6929931640625	150.1722869873047	335.7574462890626	-978.5587768554688	180.1444396972656	262.2457580566407	-982.1314697265625	132.0029144287109	277.4911804199219	-984.301513671875	46.09468460083008	65.55906677246101	-1070.35595703125	253.5496826171875	65.98344421386724	-1043.338134765625	202.4231414794922	69.02182006835943	-947.232421875	389.0513305664062	876.8615112304689	-1215.0439453125	269.8883056640625	772.1297607421876	-1198.2841796875	370.644775390625	923.7325439453126	-1415.162353515625	321.4202880859375	791.4385375976564	-1476.754272460938	327.4368896484375	725.9851684570314	-1474.4697265625	300.8409118652344	507.884002685547	-1477.41943359375	277.217041015625	448.3726196289064	-1489.60888671875	307.2952575683594	450.4232177734376	-1449.828247070312	283.9916687011719	356.4055786132814	-1470.268920898438	379.3459167480469	917.4611206054689	-1017.619140625	336.3125610351562	750.1141967773439	-980.6361694335938	342.2734985351562	691.6485595703126	-1010.403137207031	322.8260192871094	687.3129882812501	-964.166748046875	309.1761779785156	494.5976257324219	-976.047119140625	311.4806518554688	439.6352233886719	-1008.547241210938	294.9445190429688	435.5281066894532	-960.1144409179688	282.7321166992188	356.8404846191407	-960.94091796875	284.1539306640625	740.8952636718751	-1498.156372070312	223.5276336669922	248.1139984130861	-2326.88134765625	67.30848693847656	983.5015869140626	-1212.584838867188	0.04992169886827469	0.01393720041960478	-0.06274019926786423	0.01675480045378208	0.01863989979028702	-0.01147179957479238	0.01341960020363331	0.01232010032981634	-0.01607199944555759	0.02150549925863743	1.360219955444336	-2.05952000617981	2.05482006072998	2.81306004524231	-1.970299959182739	2.751879930496216	0	0	
1199	5.99	262.648193359375	248.1143035888672	-103.8603057861328	590.0177001953125	907.0716552734376	-1206.021362304688	582.51806640625	969.9212646484376	-1126.308959960938	581.9395141601562	968.2701416015626	-1285.854858398438	383.9158325195312	1049.98681640625	-1208.242797851562	188.9463958740234	1024.848754882812	-1214.902587890625	161.0392303466797	1022.26806640625	-1216.133544921875	104.9203186035156	1006.15478515625	-1160.828979492188	102.5709381103516	1002.241333007813	-1210.370239257812	13.48501873016357	994.0608520507814	-1216.012939453125	-38.60379791259766	964.2205810546876	-1163.050170898438	-42.68963241577148	967.2709350585939	-1213.0078125	-103.1393051147461	909.4407958984376	-1232.468505859375	-91.76273345947266	912.7495117187501	-1182.611328125	-147.6699676513672	879.5725097656251	-1193.329467773438	48.55721664428711	675.7627563476564	-1437.042236328125	51.30174255371094	596.0275878906251	-1432.609252929688	89.33900451660156	629.2804565429689	-1434.984008789062	162.0264892578125	338.0686035156251	-1451.197509765625	110.7033462524414	278.0937805175782	-1449.445190429688	160.3259582519531	276.0435791015626	-1447.430786132812	39.93960571289062	68.19457244873055	-1372.314208984375	249.9631500244141	72.81787109375009	-1376.079223632812	207.3981628417969	54.90727233886728	-1483.93017578125	65.48106384277344	644.2817993164064	-993.98193359375	143.7219085693359	627.8899536132814	-994.2423706054688	104.9656600952148	596.2009277343751	-993.6658935546875	150.0767822265625	335.7811889648438	-978.5693359375	180.0538482666016	262.2747497558594	-982.0406494140625	131.9123992919922	277.5204772949219	-984.25048828125	46.085205078125	65.5440979003907	-1070.348999023438	253.5448150634766	65.99185180664068	-1043.338012695312	202.4166107177734	69.0204696655274	-947.220947265625	389.0178527832031	876.6875000000001	-1215.029174804688	269.7099609375	772.0814819335939	-1198.234130859375	370.7049255371094	923.5815429687501	-1415.149780273438	321.5071411132812	791.2979125976564	-1476.817626953125	327.5145568847656	725.8421630859376	-1474.540405273438	300.8706359863281	507.7223510742189	-1477.4921875	277.2026672363281	448.2084045410157	-1489.661254882812	307.27880859375	450.2566223144532	-1449.8857421875	283.8924560546875	356.2281188964845	-1470.32568359375	379.4100036621094	917.3272705078126	-1017.601501464844	336.3217163085938	749.9987792968751	-980.5366821289062	342.2782897949219	691.5265502929689	-1010.284790039062	322.8229064941406	687.2044067382814	-964.0530395507812	309.0932922363281	494.4891357421876	-975.9677124023438	311.4292907714844	439.5424804687501	-1008.497375488281	294.8336486816406	435.4050292968751	-960.0694580078125	282.6539916992188	356.7296752929688	-960.9581298828125	284.2407836914062	740.7606201171876	-1498.242553710938	223.4085235595703	248.1693267822267	-2326.926513671875	67.20377349853516	983.4612426757814	-1212.594970703125	0.04949619993567467	0.01381769962608815	-0.06419490277767181	0.01670029945671558	0.01909529976546764	-0.01135620009154081	0.01283250004053116	0.01206739991903305	-0.01554219983518124	0.02063940092921257	1.37952995300293	-2.060090065002441	2.056910037994385	2.815979957580566	-1.979850053787231	2.752190113067627	0	0	
1200	5.995	262.6588134765625	248.1705322265625	-103.9015731811523	590.0155639648438	906.9508056640626	-1205.972900390625	582.4550170898438	969.8372192382814	-1126.273315429688	581.9036254882812	968.1201782226564	-1285.817138671875	383.9057006835938	1049.850708007812	-1208.247192382812	188.9142150878906	1024.806884765625	-1214.93798828125	160.9880218505859	1022.244812011719	-1216.16650390625	104.859016418457	1006.164916992188	-1160.865112304688	102.5112838745117	1002.244018554688	-1210.412963867188	13.31629467010498	994.0477905273439	-1216.04345703125	-38.7609977722168	964.2015991210939	-1163.07177734375	-42.85488128662109	967.2468872070314	-1213.028076171875	-103.2971725463867	909.3731689453126	-1232.47314453125	-91.90936279296875	912.6914672851564	-1182.624755859375	-147.8137054443359	879.5061645507814	-1193.334350585938	48.43444061279297	675.7304077148439	-1437.033935546875	51.20507049560547	595.9974975585939	-1432.632080078125	89.23088836669922	629.2625122070314	-1434.99267578125	161.9413909912109	338.0828857421876	-1451.24560546875	110.6113510131836	278.1099548339845	-1449.474853515625	160.2411804199219	276.0581970214845	-1447.505004882812	39.91942977905273	68.16517639160165	-1372.318969726562	249.9570922851562	72.8322067260743	-1376.07470703125	207.3981323242188	54.91844177246103	-1483.919799804688	65.37519073486328	644.2943115234376	-993.9778442382812	143.6195526123047	627.9317016601564	-994.2349853515625	104.8766326904297	596.2263183593751	-993.6400756835938	149.9692230224609	335.8058166503907	-978.5833129882812	179.9517059326172	262.3047485351563	-981.9492797851562	131.8109436035156	277.5513610839844	-984.2017211914062	46.07369232177734	65.52972412109382	-1070.341674804688	253.5390930175781	66.00074005126959	-1043.336303710938	202.4091033935547	69.01911926269537	-947.2077026367188	388.9866943359375	876.5122070312501	-1215.022094726562	269.5309753417969	772.0343627929689	-1198.19677734375	370.7699279785156	923.4341430664064	-1415.1474609375	321.5975646972656	791.1577758789064	-1476.892822265625	327.5982360839844	725.7009887695314	-1474.623901367188	300.9036865234375	507.5566406250001	-1477.568481445312	277.1900939941406	448.0444641113282	-1489.71923828125	307.2679443359375	450.0881652832032	-1449.953002929688	283.7916564941406	356.050262451172	-1470.389038085938	379.4856262207031	917.1950683593751	-1017.596008300781	336.3524780273438	749.8850708007814	-980.4390258789062	342.3032836914062	691.4037475585939	-1010.167236328125	322.8427429199219	687.0985107421876	-963.9382934570312	309.0239868164062	494.3783569335938	-975.9043579101562	311.3759155273438	439.4456787109376	-1008.46533203125	294.7378234863281	435.2796020507813	-960.0369262695312	282.5802917480469	356.6176757812501	-960.9796142578125	284.331787109375	740.6263427734376	-1498.337158203125	223.2895812988281	248.2244567871095	-2326.97412109375	67.09928131103516	983.4225463867189	-1212.616333007812	0.04882390052080154	0.01372240018099547	-0.06612259894609451	0.0166638009250164	0.01950559951364994	-0.01122319977730512	0.01227049995213747	0.01178499963134527	-0.01502310018986464	0.01972699910402298	1.400159955024719	-2.060400009155273	2.05839991569519	2.817650079727173	-1.988369941711426	2.752190113067627	0	0	
1201	6	262.6691284179688	248.2236022949219	-103.9463272094726	590.01025390625	906.8308715820314	-1205.937377929688	582.3931274414062	969.7526245117189	-1126.249877929688	581.8659057617188	967.9677124023439	-1285.791870117188	383.8981323242188	1049.715576171875	-1208.259399414062	188.8842010498047	1024.769165039062	-1214.98486328125	160.9383544921875	1022.222778320313	-1216.211791992188	104.8009719848633	1006.178100585938	-1160.9140625	102.4530639648438	1002.247924804688	-1210.469116210938	13.1498556137085	994.0365600585939	-1216.084106445312	-38.91764831542969	964.1849975585939	-1163.105224609375	-43.01799011230469	967.2251586914064	-1213.059936523438	-103.4508972167969	909.3070068359376	-1232.492553710938	-92.05419921875	912.6353149414064	-1182.652221679688	-147.9567718505859	879.4425659179689	-1193.353759765625	48.31462478637695	675.6947021484376	-1437.031616210938	51.11161041259766	595.9650878906251	-1432.661010742188	89.12549591064453	629.2415161132814	-1435.006225585938	161.8577880859375	338.0961914062501	-1451.295776367188	110.5238037109375	278.1232299804689	-1449.5048828125	160.1578521728516	276.0714416503907	-1447.581787109375	39.89923095703125	68.1358184814454	-1372.323486328125	249.9510803222656	72.84642028808602	-1376.06982421875	207.3976745605469	54.92902374267587	-1483.908935546875	65.25838470458984	644.3082885742189	-993.9784545898438	143.506591796875	627.9758300781251	-994.2268676757812	104.7779922485352	596.2538452148439	-993.6170654296875	149.8495941162109	335.8321533203126	-978.600341796875	179.8381805419922	262.3362426757813	-981.8583984375	131.6986541748047	277.5839233398438	-984.1569213867188	46.06034851074219	65.51546478271491	-1070.334106445312	253.5326690673828	66.01007080078131	-1043.333251953125	202.4007568359375	69.01792144775396	-947.1929931640625	388.9585876464844	876.3358154296876	-1215.022338867188	269.352294921875	771.9884643554689	-1198.169921875	370.8407592773438	923.2901000976564	-1415.153198242188	321.6971740722656	791.0167846679689	-1476.976196289062	327.6940612792969	725.5603637695314	-1474.715698242188	300.9444274902344	507.3856811523439	-1477.64306640625	277.185546875	447.8799133300782	-1489.779663085938	307.2660827636719	449.9166259765626	-1450.024780273438	283.6930847167969	355.8709106445314	-1470.45556640625	379.5723571777344	917.0639038085939	-1017.602355957031	336.404052734375	749.7714843750001	-980.3475341796875	342.3460693359375	691.2793579101564	-1010.056091308594	322.8848571777344	686.9934692382814	-963.827392578125	308.9682312011719	494.2650146484376	-975.8594970703125	311.3196716308594	439.3441467285157	-1008.453063964844	294.6576232910156	435.1513977050782	-960.0193481445312	282.5109558105469	356.5043640136719	-961.00634765625	284.4344787597656	740.4904174804689	-1498.4384765625	223.1706390380859	248.2798309326173	-2327.02392578125	66.99539184570312	983.3861694335939	-1212.648071289062	0.04796180129051208	0.01364689972251654	-0.06839519739151001	0.01664450019598007	0.0198512002825737	-0.01107999961823225	0.011744299903512	0.01147780008614063	-0.01450989954173565	0.01882760040462017	1.423179984092713	-2.060489892959595	2.05925989151001	2.818289995193481	-1.995519995689392	2.751869916915894	0	0	
